# xmcd CD database file
#
# Track frame offsets:
#	150
#	71195
#	120015
#	144864
#	199010
#
# Disc length: 3462 seconds
#
# Revision: 0
# Processed by: cddbd v1.5.2PL0 Copyright (c) Steve Scherf et al.
# Submitted via: CDex 1.51
#
DISCID=3d0d8405
DTITLE=Crystal Vibrations - Terra Firma
DYEAR=1900
DGENRE=New Age
TTITLE0=Balance Point
TTITLE1=Undine's Offering
TTITLE2=Dance of the Salamander
TTITLE3=Sylph's Song
TTITLE4=The Gnome's Embrace
EXTD=
EXTT0=
EXTT1=
EXTT2=
EXTT3=
EXTT4=
PLAYORDER=
